<svg width="18" height="20" viewBox="0 0 18 20" fill="none" xmlns="http://www.w3.org/2000/svg">
<path d="M8.11357 0.272366L0.788441 6.22404C0.341516 6.58716 0.341516 7.17608 0.788441 7.53921C1.23546 7.90241 1.9601 7.90241 2.40711 7.53921L7.77836 3.17507L7.77836 19.0701C7.77836 19.5836 8.29084 20 8.92291 20C9.55489 20 10.0675 19.5836 10.0675 19.0701L10.0675 3.17507L15.4387 7.53906C15.8857 7.90226 16.6104 7.90226 17.0574 7.53906C17.2807 7.35753 17.3926 7.11947 17.3926 6.88147C17.3926 6.64348 17.2807 6.40549 17.0574 6.22389L9.73225 0.272366C9.28523 -0.0908356 8.56059 -0.0908356 8.11357 0.272366Z" fill="#DF2E2E"/>
</svg>
