<svg width="20" height="20" viewBox="0 0 20 20" fill="none" xmlns="http://www.w3.org/2000/svg">
<path d="M10 0C4.48566 0 0 4.48566 0 10C0 15.5143 4.48566 20 10 20C15.5143 20 20 15.5136 20 10C20 4.48645 15.5143 0 10 0ZM10 18.4508C5.34082 18.4508 1.54918 14.66 1.54918 10C1.54918 5.34004 5.34082 1.54918 10 1.54918C14.6592 1.54918 18.4508 5.34004 18.4508 10C18.4508 14.66 14.66 18.4508 10 18.4508Z" fill="white"/>
<path d="M9.06262 13.3332C8.90256 13.3332 8.74265 13.2725 8.62088 13.1499L5.9126 10.4417C5.66846 10.1974 5.66846 9.80154 5.9126 9.5574C6.15674 9.31326 6.55255 9.31326 6.79684 9.5574L9.06339 11.8241L14.0385 6.84912C14.2827 6.60498 14.6785 6.60498 14.9226 6.84912C15.1667 7.09326 15.1667 7.48907 14.9226 7.73322L9.50589 13.1499C9.3826 13.2725 9.22269 13.3332 9.06262 13.3332Z" fill="white"/>
</svg>
