<svg width="16" height="20" viewBox="0 0 16 20" fill="none" xmlns="http://www.w3.org/2000/svg">
<path d="M13.8633 0C13.1417 0 2.21915 0 1.59766 0C0.736145 0 0.0351562 0.700989 0.0351562 1.5625V18.4375C0.0351562 19.299 0.736145 20 1.59766 20H13.8633C14.7248 20 15.4258 19.299 15.4258 18.4375V1.5625C15.4258 0.700989 14.7248 0 13.8633 0ZM10.0225 1.5625L10.0231 3.07281C10.0231 3.07281 10.0228 3.07297 10.0222 3.07297H5.43875V1.5625H10.0225ZM13.8633 18.4375H1.59766V1.5625H3.87625V3.07297C3.87625 3.93448 4.57724 4.63547 5.43875 4.63547H10.0222C10.8837 4.63547 11.5847 3.93448 11.5847 3.07297V1.5625H13.8633L13.8642 18.4375C13.8642 18.4375 13.864 18.4375 13.8633 18.4375ZM11.5847 13.073C11.5847 13.5045 11.235 13.8542 10.8034 13.8542H4.6575C4.22598 13.8542 3.87625 13.5045 3.87625 13.073C3.87625 12.6414 4.22598 12.2917 4.6575 12.2917H10.8034C11.235 12.2917 11.5847 12.6414 11.5847 13.073ZM11.5847 8.46359C11.5847 8.89511 11.235 9.24484 10.8034 9.24484H4.6575C4.22598 9.24484 3.87625 8.89511 3.87625 8.46359C3.87625 8.03207 4.22598 7.68234 4.6575 7.68234H10.8034C11.235 7.68234 11.5847 8.03207 11.5847 8.46359Z" fill="white"/>
</svg>
