<svg width="20" height="18" viewBox="0 0 20 18" fill="none" xmlns="http://www.w3.org/2000/svg">
<path d="M14.6159 0.40625C12.3816 0.40625 10.796 1.379 10.0001 2.013C9.20409 1.379 7.61855 0.40625 5.3842 0.40625C-1.17968 0.40625 -3.81595 12.168 9.71023 17.5622C9.89455 17.6356 10.1019 17.6371 10.2899 17.5622C23.822 12.1658 21.174 0.40625 14.6159 0.40625ZM10.0001 15.9911C8.50036 15.3713 7.18367 14.6545 6.05696 13.8464C8.51088 12.5472 11.4842 12.5445 13.9432 13.8464C12.8165 14.6545 11.4998 15.3713 10.0001 15.9911ZM7.70522 9.01206C7.70522 7.74665 8.73473 6.71714 10.0001 6.71714C11.2654 6.71714 12.2949 7.74665 12.2949 9.01206C12.2949 10.2775 11.2654 11.3068 10.0001 11.3068C8.73473 11.3068 7.70522 10.2775 7.70522 9.01206ZM15.2489 12.7917C14.4717 12.3119 13.6397 11.9445 12.7716 11.6952C15.1375 9.25209 13.3881 5.1525 10.0001 5.1525C7.87184 5.1525 6.14043 6.88392 6.14043 9.01206C6.14043 10.0536 6.55547 11.0001 7.22853 11.6952C6.36046 11.9445 5.5284 12.3119 4.75126 12.7917C-0.61694 7.88886 1.60429 1.97089 5.3842 1.97089C6.43706 1.97089 7.43209 2.2399 8.34166 2.7703C9.01534 3.16321 9.39483 3.56421 9.41909 3.59015C9.72015 3.93088 10.2612 3.94675 10.5824 3.58847C10.5971 3.57245 12.0627 1.97089 14.6159 1.97089C18.4084 1.97089 20.6064 7.89848 15.2489 12.7917Z" fill="white"/>
</svg>
