<svg width="14" height="20" viewBox="0 0 14 20" fill="none" xmlns="http://www.w3.org/2000/svg">
<path d="M6.34218 0.272366L0.390509 6.22404C0.0273825 6.58716 0.0273825 7.17608 0.390509 7.53921C0.75371 7.90241 1.34248 7.90241 1.70568 7.53921L6.06982 3.17507L6.06982 19.0701C6.06982 19.5836 6.48621 20 6.99977 20C7.51325 20 7.92972 19.5836 7.92972 19.0701L7.92972 3.17507L12.2939 7.53906C12.6571 7.90226 13.2458 7.90226 13.609 7.53906C13.7905 7.35753 13.8814 7.11947 13.8814 6.88147C13.8814 6.64348 13.7905 6.40549 13.609 6.22389L7.65735 0.272366C7.29415 -0.0908356 6.70538 -0.0908356 6.34218 0.272366Z" fill="white"/>
</svg>
