<svg width="14" height="20" viewBox="0 0 14 20" fill="none" xmlns="http://www.w3.org/2000/svg">
<path d="M12.7034 10.5491C12.4659 9.999 12.141 9.36938 11.7971 8.70277C11.1261 7.40252 10.3656 5.92882 9.96538 4.50927C9.53213 2.97257 9.60924 1.79587 10.2012 0.911987C10.3355 0.711359 10.333 0.448816 10.1949 0.250766C10.0567 0.0527161 9.81128 -0.0403322 9.57651 0.0164655C9.46564 0.0433019 6.84658 0.69757 5.58054 2.81616C5.15682 3.52515 4.93576 4.30766 4.91826 5.15487C4.5406 4.86963 4.11876 4.62419 3.71602 4.5456C3.53098 4.50954 3.33992 4.56462 3.20257 4.69376C3.06519 4.82287 2.99835 5.01014 3.02288 5.19705C3.22874 6.76442 2.52401 7.8042 1.70805 9.00821C1.32508 9.57329 0.929057 10.1576 0.599482 10.8343C-0.270924 12.6211 -0.129515 14.5411 1.01976 16.5411C2.26931 18.7156 4.56674 20 6.97197 20C7.5519 20 8.1384 19.9253 8.71766 19.7704C8.76224 19.7585 8.807 19.7469 8.8511 19.7334C10.5388 19.2179 11.885 18.0335 12.6417 16.3984C13.4797 14.5876 13.5028 12.4009 12.7034 10.5491ZM4.86924 17.9914C4.38224 17.4451 4.15216 16.7036 4.23802 15.9568C4.32501 15.2 4.991 14.3263 5.635 13.4814C6.29602 12.6141 7.01502 11.6709 7.23366 10.6744C7.85745 11.4758 8.42469 12.9003 7.64655 15.1699C7.58128 15.3602 7.61823 15.5707 7.74444 15.7274C7.87062 15.8841 8.06836 15.9652 8.26828 15.942C8.4768 15.9178 8.78001 15.8255 9.06787 15.6319C9.1831 16.4217 9.0481 17.2243 8.66805 17.8258C8.38824 18.2685 7.84913 18.7936 6.859 18.8268C6.66884 18.823 6.47966 18.8095 6.29208 18.7866C5.7409 18.6878 5.24659 18.4146 4.86924 17.9914ZM11.5782 15.9062C11.1987 16.7263 10.6379 17.4062 9.94331 17.9047C10.4337 16.7453 10.3936 15.3001 9.80522 14.0622C9.69608 13.8325 9.45139 13.6995 9.19904 13.7328C9.18732 13.7344 9.17568 13.7362 9.16416 13.7385C9.31803 12.2001 8.89681 11.0876 8.442 10.3632C7.76206 9.28036 6.85709 8.80879 6.81892 8.78922C6.59872 8.67652 6.33141 8.7143 6.15106 8.88356C5.97067 9.05282 5.91598 9.31716 6.01445 9.54407C6.43095 10.504 5.5916 11.6052 4.70299 12.771C3.96294 13.742 3.19765 14.746 3.07382 15.8229C3.01155 16.3645 3.06526 16.905 3.2239 17.4098C2.76026 17.0027 2.35654 16.5153 2.03587 15.9573C1.07867 14.2915 0.953472 12.7837 1.65305 11.3475C1.94603 10.746 2.31822 10.1968 2.67819 9.66568C3.38742 8.61918 4.11634 7.54357 4.21927 6.09437C4.59967 6.38567 4.99487 6.77829 5.25284 7.08302C5.42945 7.2922 5.72742 7.35123 5.97043 7.22509C6.21344 7.09896 6.33676 6.82138 6.26735 6.55653C5.95328 5.35749 6.05942 4.30337 6.5829 3.42343C7.09893 2.55604 7.93742 1.98384 8.63602 1.63122C8.42492 2.54713 8.49274 3.60469 8.83751 4.8274C9.2699 6.36098 10.0592 7.89065 10.7557 9.24024C11.0901 9.88842 11.406 10.5006 11.6275 11.0136C12.2968 12.5641 12.2784 14.3931 11.5782 15.9062Z" fill="white"/>
</svg>
