<svg width="14" height="20" viewBox="0 0 14 20" fill="none" xmlns="http://www.w3.org/2000/svg">
<path d="M13.0412 10.5491C12.8038 9.999 12.4789 9.36938 12.1349 8.70277C11.464 7.40252 10.7035 5.92882 10.3033 4.50927C9.87002 2.97257 9.94713 1.79587 10.5391 0.911987C10.6734 0.711359 10.6709 0.448816 10.5328 0.250766C10.3946 0.0527161 10.1492 -0.0403322 9.9144 0.0164655C9.80354 0.0433019 7.18447 0.69757 5.91843 2.81616C5.49471 3.52515 5.27366 4.30766 5.25616 5.15487C4.87849 4.86963 4.45665 4.62419 4.05391 4.5456C3.86887 4.50954 3.67781 4.56462 3.54046 4.69376C3.40308 4.82287 3.33624 5.01014 3.36077 5.19705C3.56663 6.76442 2.8619 7.8042 2.04595 9.00821C1.66297 9.57329 1.26695 10.1576 0.937372 10.8343C0.066967 12.6211 0.208376 14.5411 1.35765 16.5411C2.6072 18.7156 4.90463 20 7.30986 20C7.88979 20 8.47629 19.9253 9.05555 19.7704C9.10013 19.7585 9.14489 19.7469 9.189 19.7334C10.8767 19.2179 12.2229 18.0335 12.9796 16.3984C13.8176 14.5876 13.8407 12.4009 13.0412 10.5491ZM5.20713 17.9914C4.72013 17.4451 4.49005 16.7036 4.57591 15.9568C4.6629 15.2 5.32889 14.3263 5.97289 13.4814C6.63391 12.6141 7.35291 11.6709 7.57155 10.6744C8.19535 11.4758 8.76258 12.9003 7.98444 15.1699C7.91917 15.3602 7.95612 15.5707 8.08234 15.7274C8.20851 15.8841 8.40625 15.9652 8.60617 15.942C8.81469 15.9178 9.1179 15.8255 9.40576 15.6319C9.52099 16.4217 9.38599 17.2243 9.00595 17.8258C8.72614 18.2685 8.18703 18.7936 7.19689 18.8268C7.00673 18.823 6.81755 18.8095 6.62997 18.7866C6.07879 18.6878 5.58448 18.4146 5.20713 17.9914ZM11.9161 15.9062C11.5366 16.7263 10.9757 17.4062 10.2812 17.9047C10.7716 16.7453 10.7315 15.3001 10.1431 14.0622C10.034 13.8325 9.78928 13.6995 9.53693 13.7328C9.52521 13.7344 9.51357 13.7362 9.50205 13.7385C9.65592 12.2001 9.2347 11.0876 8.77989 10.3632C8.09995 9.28036 7.19498 8.80879 7.15681 8.78922C6.93661 8.67652 6.6693 8.7143 6.48895 8.88356C6.30856 9.05282 6.25387 9.31716 6.35235 9.54407C6.76884 10.504 5.92949 11.6052 5.04088 12.771C4.30083 13.742 3.53554 14.746 3.41171 15.8229C3.34944 16.3645 3.40316 16.905 3.56179 17.4098C3.09815 17.0027 2.69443 16.5153 2.37376 15.9573C1.41656 14.2915 1.29136 12.7837 1.99094 11.3475C2.28392 10.746 2.65611 10.1968 3.01608 9.66568C3.72531 8.61918 4.45423 7.54357 4.55716 6.09437C4.93756 6.38567 5.33276 6.77829 5.59073 7.08302C5.76734 7.2922 6.06531 7.35123 6.30832 7.22509C6.55133 7.09896 6.67466 6.82138 6.60524 6.55653C6.29117 5.35749 6.39731 4.30337 6.92079 3.42343C7.43682 2.55604 8.27531 1.98384 8.97391 1.63122C8.76282 2.54713 8.83063 3.60469 9.1754 4.8274C9.60779 6.36098 10.3971 7.89065 11.0936 9.24024C11.428 9.88842 11.7439 10.5006 11.9654 11.0136C12.6347 12.5641 12.6163 14.3931 11.9161 15.9062Z" fill="#C0714F"/>
</svg>
