<svg width="22" height="30" viewBox="0 0 22 30" fill="none" xmlns="http://www.w3.org/2000/svg">
<path d="M17.8944 0H4.14453C2.2059 0 0.628906 1.577 0.628906 3.51562V26.4844C0.628906 28.423 2.2059 30 4.14453 30H17.8946C19.833 30 21.4102 28.423 21.4102 26.4844V3.51562C21.41 1.577 19.833 0 17.8944 0ZM4.14453 2.34375H17.8946C18.5407 2.34375 19.0665 2.86949 19.0665 3.51562V23.0468H2.97266V3.51562C2.97266 2.86949 3.4984 2.34375 4.14453 2.34375ZM17.8944 27.6562H4.14453C3.4984 27.6562 2.97266 27.1305 2.97266 26.4844V25.3905H19.0665V26.4844C19.0663 27.1305 18.5407 27.6562 17.8944 27.6562ZM5.25781 20.7813H16.7813C17.4286 20.7813 17.9532 20.2567 17.9532 19.6095V5.78133C17.9532 5.13405 17.4286 4.60945 16.7813 4.60945H5.25781C4.61053 4.60945 4.08594 5.13405 4.08594 5.78133V19.6095C4.08594 20.2565 4.61053 20.7813 5.25781 20.7813ZM6.42969 18.4376V11.5624H15.6095V18.4373H6.42969V18.4376ZM15.6092 6.9532V9.2189H6.42969V6.9532H15.6092Z" fill="#82C198"/>
</svg>
