<svg width="30" height="30" viewBox="0 0 30 30" fill="none" xmlns="http://www.w3.org/2000/svg">
<path d="M30 15C30 16.7148 29.7128 18.3971 29.1463 19.9999C28.8432 20.8566 27.7201 21.0578 27.1392 20.3574L23.3167 15.748C22.9035 15.2499 22.9726 14.5111 23.4707 14.098C23.9687 13.6848 24.7076 13.7537 25.1209 14.252L27.483 17.1005C27.5983 16.4101 27.6562 15.7086 27.6562 15C27.6562 8.00423 21.9949 2.34375 15 2.34375C8.00423 2.34375 2.34375 8.00514 2.34375 15C2.34375 15.7086 2.40166 16.4101 2.51701 17.1005L4.8793 14.252C5.29243 13.7537 6.03104 13.6848 6.52931 14.098C7.02759 14.5111 7.09648 15.2499 6.68335 15.748L2.86079 20.3574C2.28081 21.0571 1.15677 20.8569 0.853729 19.9999C0.287247 18.3971 0 16.7148 0 15C0 6.70876 6.7099 0 15 0C23.2912 0 30 6.7099 30 15ZM26.1797 25.001C20.1956 31.6859 9.76295 31.6397 3.82027 25.001C3.41721 24.5506 3.4227 23.8669 3.83331 23.4233C5.73097 21.3089 8.17451 19.7971 10.854 19.0249C7.31895 15.3845 9.88632 9.21867 15 9.21867C20.1121 9.21867 22.6817 15.3836 19.146 19.0249C21.8255 19.7971 24.269 21.3087 26.1667 23.4233C26.5773 23.8669 26.5828 24.5506 26.1797 25.001ZM14.9986 18.4376C16.9032 18.4367 18.4376 16.8892 18.4376 15C18.4376 13.1046 16.8954 11.5624 15 11.5624C13.1046 11.5624 11.5624 13.1046 11.5624 15C11.5624 16.8949 13.1037 18.4367 14.9986 18.4376ZM23.6705 24.2194C18.7944 19.6374 11.2099 19.6333 6.32973 24.2194C11.2061 28.8011 18.7971 28.7979 23.6705 24.2194Z" fill="#82C198"/>
</svg>
